PathFileType	4	(X/Y/Z)	./resultDataOpenSim/trcMotMarkerGrf/sub09/qtm-05-05.trc
DataRate	CameraRate	NumFrames	NumMarkers	Units	OrigDataRate	OrigDataStartFrame	OrigNumFrames
250.000000	250.000000	11	24	m	250.000000	391	521
Frame#	Time	L.Toe.Tip			R.Toe.Tip			L.Ankle.Lat			R.Ankle.Lat			L.Ankle.Med			R.Ankle.Med			L.Heel			R.Heel			L.Knee.Lat			R.Knee.Lat			L.Knee.Med			R.Knee.Med			L.Thigh.Upper			R.Thigh.Upper			L.ASIS			R.ASIS			V.Sacral			L.Acromium			R.Acromium			C7			L.Elbow			R.Elbow			L.Wrist.Lat			R.Wrist.Lat
		X1	Y1	Z1	X2	Y2	Z2	X3	Y3	Z3	X4	Y4	Z4	X5	Y5	Z5	X6	Y6	Z6	X7	Y7	Z7	X8	Y8	Z8	X9	Y9	Z9	X10	Y10	Z10	X11	Y11	Z11	X12	Y12	Z12	X13	Y13	Z13	X14	Y14	Z14	X15	Y15	Z15	X16	Y16	Z16	X17	Y17	Z17	X18	Y18	Z18	X19	Y19	Z19	X20	Y20	Z20	X21	Y21	Z21	X22	Y22	Z22	X23	Y23	Z23	X24	Y24	Z24

391	1.56	0.68338211	0.15462633	0.057580358	1.0188811	0.039901933	0.17766076	0.6721109	0.31078099	0.0084687026	0.87181507	0.056147246	0.21233133	0.68652895	0.30017394	0.10453875	0.88950858	0.098593759	0.1236126	0.60652594	0.3575319	0.046923003	0.80166635	0.039436352	0.1627107	1.0272437	0.4955356	0.0026399135	0.98109543	0.50102589	0.27684238	1.0241073	0.48837558	0.13172709	0.96482771	0.48968251	0.15105384	0.86789174	0.87486751	-0.033054034	0.86866682	0.89609761	0.33407496	0.94055083	0.96204382	0.024494194	0.94905572	0.97519647	0.26191716	0.77368891	1.0286225	0.14164953	0.9559571	1.4218547	-0.022029927	0.92946768	1.4333328	0.30711281	0.87497358	1.4762727	0.13916054	0.80969854	1.0837066	-0.090354224	0.79641586	1.0876637	0.39338741	0.94148438	0.85495778	-0.11270326	0.9885648	0.88776874	0.39406197
392	1.564	0.69961947	0.15318727	0.056772547	1.0190056	0.039899858	0.17769573	0.68380947	0.30892287	0.0092786052	0.87174075	0.056382326	0.21216633	0.69851548	0.29788218	0.10538597	0.88989833	0.09882776	0.12345807	0.61699322	0.35396006	0.048491466	0.80188873	0.039805782	0.16229276	1.036281	0.49879225	0.0035086654	0.98238001	0.50104982	0.27698195	1.036324	0.49181679	0.13332465	0.96594129	0.48986368	0.15111701	0.87305628	0.87645245	-0.033071239	0.87256856	0.89635634	0.3348739	0.94539386	0.96372548	0.024542836	0.95385088	0.97631354	0.26200081	0.77835803	1.029689	0.14174681	0.95976372	1.4232229	-0.022063553	0.93389561	1.4347528	0.30713673	0.87900088	1.4776182	0.13919631	0.81317136	1.0853346	-0.09023359	0.80139739	1.0891829	0.3947282	0.94369593	0.85615514	-0.11391591	0.99417608	0.88967855	0.39360793
393	1.568	0.71599161	0.15156898	0.055974711	1.0191334	0.039899081	0.1777263	0.69547156	0.30680334	0.010140156	0.8715498	0.056631935	0.21200233	0.71060008	0.2953485	0.10623351	0.89030573	0.09906702	0.12328431	0.62762116	0.3501454	0.050033759	0.80209709	0.040185318	0.16184293	1.0452661	0.5019814	0.0043611573	0.98365317	0.50107883	0.2771059	1.0504965	0.495374	0.13550124	0.96716829	0.48996617	0.15116497	0.87856217	0.87800406	-0.033012453	0.87648724	0.89652617	0.33570929	0.95023068	0.9653541	0.024577619	0.95863091	0.97738984	0.26206981	0.78397265	1.0308498	0.14198081	0.96357497	1.4245404	-0.022098399	0.93832561	1.4361216	0.30716025	0.88300286	1.4789617	0.13926494	0.81662567	1.0869123	-0.090102927	0.8063328	1.0905591	0.39565681	0.94589318	0.85732218	-0.11512964	0.99975627	0.89152395	0.39315766
394	1.572	0.73252017	0.14981401	0.055158907	1.0192642	0.039899086	0.17775105	0.70712331	0.30440904	0.011036201	0.87135668	0.056886733	0.21182103	0.72291606	0.29254687	0.10710998	0.89073416	0.099314897	0.1230849	0.63835617	0.34605333	0.051528138	0.80227424	0.040566283	0.16136579	1.0542081	0.50508648	0.0052078744	0.98491504	0.50107047	0.27721735	1.064833	0.49889981	0.13780395	0.96849124	0.49008879	0.15119804	0.8842512	0.87951163	-0.032954341	0.88061041	0.89689331	0.33625035	0.95505761	0.96692666	0.024604778	0.96340108	0.97843097	0.26212837	0.79030201	1.0319826	0.14219135	0.96739294	1.4258078	-0.022131994	0.94275328	1.4374366	0.30718138	0.88701739	1.4802711	0.13939467	0.82006445	1.0884397	-0.089961477	0.81123045	1.091802	0.39629252	0.94814459	0.85846143	-0.11630669	1.0053057	0.893303	0.39271132
395	1.576	0.74921328	0.1479814	0.054322953	1.0193944	0.039897788	0.17777087	0.71882302	0.30173937	0.01192299	0.87127145	0.057144778	0.21159701	0.73558009	0.28946036	0.1079896	0.89116528	0.099589229	0.12287162	0.64918398	0.3416547	0.052957056	0.80242533	0.040945006	0.16085574	1.0630484	0.50812245	0.006026771	0.98615796	0.5010387	0.27731393	1.0769658	0.50216899	0.13951969	0.96982738	0.49026658	0.15124022	0.88979726	0.88095349	-0.032952238	0.88493088	0.89751266	0.33645501	0.95985493	0.96844292	0.024640845	0.96815957	0.97943645	0.26217839	0.79665581	1.0330015	0.1422802	0.97121687	1.4270241	-0.022164552	0.94717838	1.4386971	0.30719995	0.89106767	1.4815235	0.13954952	0.82350401	1.0899155	-0.089816704	0.81610511	1.0929401	0.39677707	0.95048097	0.85957343	-0.11743184	1.0108278	0.89501782	0.39226864
396	1.58	0.7660169	0.14607794	0.053514145	1.0195159	0.039889663	0.17779011	0.73060882	0.29879454	0.012769139	0.87131005	0.057410843	0.21132298	0.74857744	0.2861152	0.10879676	0.89157009	0.099909045	0.12267057	0.66012397	0.33693101	0.054303532	0.80257761	0.041335276	0.16030979	1.0716932	0.51111522	0.0067832727	0.98737753	0.50103026	0.27739146	1.0859043	0.50508047	0.14030841	0.97123247	0.49040684	0.1513302	0.89497291	0.88231137	-0.033005082	0.8893527	0.8982599	0.33647733	0.96458163	0.96990356	0.024708117	0.97290069	0.98040222	0.26222125	0.80242309	1.0339185	0.14228921	0.97504356	1.4281875	-0.022196047	0.95160365	1.4399036	0.30721838	0.89514385	1.4827243	0.13971015	0.82695519	1.0913373	-0.089674285	0.82097795	1.0940039	0.39720052	0.95288845	0.86065667	-0.11851283	1.0163254	0.89666965	0.39182772
397	1.584	0.78282149	0.14406415	0.052826011	1.0196177	0.039867276	0.17781484	0.74248957	0.2955713	0.013567012	0.87141944	0.057690149	0.21100725	0.76168363	0.28258999	0.10949588	0.89192893	0.10026642	0.12250524	0.67119573	0.33187044	0.055549016	0.80276216	0.0417579	0.15973512	1.0800965	0.51406848	0.0074581336	0.98859209	0.50105364	0.27745596	1.0919813	0.50766836	0.14024563	0.97287368	0.49037408	0.15153168	0.89980505	0.88358305	-0.033095314	0.8937927	0.89901765	0.33645184	0.96921797	0.97131117	0.024816128	0.97762334	0.98132622	0.26226218	0.80751484	1.0347769	0.14229934	0.97887419	1.4292966	-0.02222318	0.95602747	1.4410566	0.3072371	0.89921323	1.4838726	0.1398734	0.8304193	1.0927032	-0.089533952	0.825864	1.0950162	0.39761097	0.9553455	0.8617083	-0.1195609	1.0217968	0.89825553	0.39138726
398	1.588	0.79956865	0.14191854	0.052317046	1.0196964	0.039829318	0.17784644	0.75446966	0.29207552	0.014316867	0.87154524	0.057985541	0.21066117	0.77468783	0.27895204	0.11011446	0.8922613	0.10061829	0.12236624	0.68238438	0.32646905	0.056681998	0.80298737	0.04221639	0.1591641	1.0882797	0.51695956	0.0080588026	0.98984399	0.50110024	0.27752865	1.0960584	0.51002481	0.13958641	0.97478438	0.49014486	0.15188245	0.90449828	0.88478142	-0.033213395	0.89820805	0.8997407	0.33643375	0.97381628	0.97266814	0.024940106	0.98233371	0.98221011	0.26231048	0.81219933	1.0355928	0.14234231	0.98271328	1.4303518	-0.022247406	0.96044808	1.4421563	0.30725614	0.90328162	1.4849351	0.14000789	0.83389078	1.0940127	-0.08939502	0.83075497	1.0959812	0.39802139	0.95784338	0.862724	-0.12058101	1.027238	0.89977259	0.39094835
399	1.592	0.81629317	0.1396577	0.051966119	1.0197679	0.039787356	0.17787601	0.76656206	0.28832578	0.01501284	0.871659	0.058291888	0.21030682	0.78773656	0.27520033	0.11063468	0.89263457	0.10091548	0.12219798	0.69364032	0.32073202	0.057709299	0.80324401	0.042693009	0.15865736	1.0962983	0.51975838	0.0086120419	0.99113266	0.50117654	0.27761281	1.0997238	0.51229469	0.13877608	0.97676733	0.48986558	0.15230655	0.90928181	0.88592634	-0.033350127	0.90259902	0.90042752	0.33642982	0.97847215	0.97397115	0.025036738	0.98704022	0.98305815	0.2623732	0.81673001	1.0363681	0.14241071	0.98656282	1.4313553	-0.022272976	0.96486735	1.4432033	0.30727635	0.90738437	1.4858958	0.14008736	0.8373644	1.0952665	-0.089263456	0.83563021	1.0968911	0.39842506	0.96038011	0.86370015	-0.12157623	1.032647	0.90122108	0.39051268
400	1.596	0.83304872	0.13730435	0.051723247	1.0198539	0.039755861	0.17789144	0.77878425	0.28434431	0.015644164	0.87176122	0.058595183	0.20997786	0.80118044	0.2713027	0.11098239	0.89310406	0.101133	0.12195091	0.70493414	0.31465998	0.05865138	0.80354063	0.043158823	0.15827979	1.1042041	0.52243831	0.0091401049	0.99237071	0.50125204	0.27767491	1.1046344	0.51461059	0.13827857	0.97861247	0.48970612	0.15266105	0.91430842	0.88703621	-0.033494979	0.90698638	0.90108768	0.33642825	0.98324135	0.97521298	0.025086812	0.9917446	0.98387494	0.26244857	0.82122062	1.0371043	0.14248709	0.99042161	1.432309	-0.022299829	0.96928426	1.4441954	0.30729545	0.91153634	1.4867814	0.14014472	0.84084588	1.0964658	-0.089145022	0.84048552	1.0977439	0.3988229	0.96295287	0.86463677	-0.12254951	1.0380239	0.90260264	0.39008223
401	1.6	0.84986284	0.13488262	0.051563564	1.0199532	0.039733053	0.1778915	0.79115246	0.28014828	0.016203298	0.87187084	0.058885947	0.20969701	0.8149839	0.26726257	0.11118775	0.89363149	0.10128302	0.12165625	0.71632573	0.30823257	0.05949644	0.80389353	0.043581111	0.15805161	1.1120106	0.52497748	0.0096424378	0.9935013	0.50127926	0.27770525	1.1110923	0.51698147	0.13821463	0.98029878	0.48969607	0.15289195	0.91959215	0.88811702	-0.033645414	0.91140537	0.90172872	0.33641478	0.98810533	0.97639126	0.025104712	0.99643859	0.98466195	0.26252806	0.82568345	1.0377941	0.14255933	0.99428789	1.4332113	-0.022328209	0.97369642	1.4451291	0.30731165	0.91573976	1.4876149	0.14024654	0.84434596	1.0976103	-0.089035707	0.84534076	1.0985478	0.399231	0.96556105	0.86553604	-0.1234987	1.0433694	0.90391842	0.38965881
